<svg width="42" height="42" viewBox="0 0 42 42" fill="none" xmlns="http://www.w3.org/2000/svg">
<path d="M19.25 1.01035C20.3329 0.385139 21.6671 0.385139 22.75 1.01035L37.4365 9.48963C38.5194 10.1148 39.1865 11.2703 39.1865 12.5207V29.4793C39.1865 30.7297 38.5194 31.8851 37.4365 32.5104L22.75 40.9896C21.6671 41.6148 20.3329 41.6148 19.25 40.9896L4.56348 32.5104C3.48057 31.8851 2.81348 30.7297 2.81348 29.4793V12.5207C2.81348 11.2703 3.48057 10.1148 4.56348 9.48963L19.25 1.01035Z" fill="white"/>
<path fill-rule="evenodd" clip-rule="evenodd" d="M36.8334 10.0198L22.5619 1.78017C21.5828 1.21489 20.3765 1.21489 19.3974 1.78017L5.12595 10.0198C4.14686 10.5851 3.54371 11.6298 3.54371 12.7603V29.2396C3.54371 30.3702 4.14686 31.4149 5.12595 31.9802L19.3974 40.2198C20.3765 40.7851 21.5828 40.7851 22.5619 40.2198L36.8334 31.9802C37.8125 31.4149 38.4157 30.3702 38.4157 29.2397V12.7603C38.4157 11.6298 37.8125 10.5851 36.8334 10.0198ZM23.24 0.605659C21.8413 -0.201886 20.1181 -0.201887 18.7193 0.605659L4.44785 8.84531C3.04914 9.65285 2.1875 11.1453 2.1875 12.7603V29.2396C2.1875 30.8547 3.04914 32.3471 4.44785 33.1547L18.7193 41.3943C20.118 42.2019 21.8413 42.2019 23.24 41.3943L37.5115 33.1547C38.9102 32.3471 39.7719 30.8547 39.7719 29.2397V12.7603C39.7719 11.1453 38.9102 9.65285 37.5115 8.84531L23.24 0.605659Z" fill="#7D41A4"/>
<g clip-path="url(#clip0_3056_2249)">
<path fill-rule="evenodd" clip-rule="evenodd" d="M21.6673 10.5529C20.1416 11.0937 18.6688 12.6721 17.2489 15.2882C15.1191 19.2123 12.3683 24.7885 16.1562 29.2035C17.9085 31.246 20.802 32.4515 24.5991 30.5423C27.6495 29.0085 28.4979 24.607 27.4028 22.5387C25.1437 18.2721 22.8518 17.2197 22.238 14.5738C21.8289 12.8098 21.6386 11.4695 21.6673 10.5529Z" fill="url(#paint0_linear_3056_2249)"/>
<path fill-rule="evenodd" clip-rule="evenodd" d="M21.6673 10.5C20.1339 11.0464 18.6611 12.6248 17.2489 15.2353C15.1307 19.1511 12.3683 24.7356 16.1562 29.1507C17.9085 31.1932 20.7647 31.8532 22.3495 30.6418C23.3827 29.8521 24.0854 29.0993 24.4902 27.5133C24.941 25.7472 24.5952 23.3695 24.3582 22.2773C24.0583 20.8951 23.9601 19.3781 24.0637 17.7262C24.0272 17.6818 23.9999 17.6485 23.9819 17.6264C23.1568 16.6167 22.5201 15.7371 22.238 14.5209C21.8289 12.7569 21.6386 11.4166 21.6673 10.5Z" fill="url(#paint1_linear_3056_2249)"/>
<path fill-rule="evenodd" clip-rule="evenodd" d="M20.3976 11.187C18.9693 12.3158 17.9074 14.2092 17.2118 16.8672C16.1683 20.8541 16.0552 24.5308 16.4233 26.6693C17.1367 30.8149 20.8352 32.3885 24.6288 30.4589C26.9635 29.2714 27.9359 26.7224 27.8844 23.9555C27.831 21.0907 22.2949 17.8438 21.3144 15.4529C20.6608 13.859 20.3552 12.437 20.3976 11.187Z" fill="url(#paint2_linear_3056_2249)"/>
<path fill-rule="evenodd" clip-rule="evenodd" d="M24.0186 18.6618C25.7315 20.8586 26.1049 22.3878 25.1387 23.2495C23.6895 24.542 20.1455 25.3853 17.9408 23.8218C16.4709 22.7794 15.9148 20.5434 16.2724 17.1137C15.6656 18.3808 15.1526 19.6644 14.7334 20.9645C14.3141 22.2646 14.1917 23.6251 14.3661 25.0461C14.8915 26.1091 16.1691 26.8191 18.1987 27.176C21.2432 27.7113 24.1247 27.4468 26.0582 26.4721C27.3472 25.8223 27.9569 25.1755 27.8872 24.5316C27.9338 23.5807 27.6406 22.6756 27.0076 21.8161C26.3747 20.9566 25.3783 19.9052 24.0186 18.6618Z" fill="url(#paint3_linear_3056_2249)"/>
<path fill-rule="evenodd" clip-rule="evenodd" d="M17.3248 16.4683C17.3104 18.0548 17.7184 19.563 18.5486 20.9928C19.7939 23.1376 21.2475 25.2569 23.4227 27.0136C24.8728 28.1847 26.0315 28.5631 26.8988 28.1487C26.1864 29.4236 25.429 30.0483 24.6265 30.0228C23.4227 29.9846 21.9548 29.4585 19.603 26.6323C18.0351 24.7481 16.9625 22.9658 16.3852 21.2854C16.4767 20.6188 16.5738 19.9548 16.6764 19.2934C16.779 18.6321 16.9951 17.6904 17.3248 16.4683Z" fill="url(#paint4_linear_3056_2249)"/>
<path fill-rule="evenodd" clip-rule="evenodd" d="M21.0037 18.6455C21.1367 19.9379 21.6397 22.0054 21.0037 23.3818C20.3677 24.7583 17.4302 27.245 18.2411 29.4356C19.0519 31.6261 21.028 31.1343 22.2676 30.1248C23.5072 29.1153 24.1707 27.4738 24.3177 26.3194C24.4648 25.165 23.9659 22.9437 23.8036 21.0116C23.6954 19.7236 23.7688 18.6192 24.0238 17.6985L23.644 17.2206L21.4083 16.5586C21.0498 17.0883 20.915 17.7839 21.0037 18.6455Z" fill="url(#paint5_linear_3056_2249)"/>
<path fill-rule="evenodd" clip-rule="evenodd" d="M21.8017 12.2439C21.0781 12.5497 20.3926 13.1555 19.745 14.0615C18.7737 15.4204 18.279 16.2349 18.6452 18.9286C18.8893 20.7244 19.0641 22.3765 19.1694 23.8848L22.3007 14.7869C22.1856 14.3234 22.0898 13.9047 22.0135 13.5309C21.9371 13.1572 21.8665 12.7282 21.8017 12.2439Z" fill="url(#paint6_linear_3056_2249)"/>
<path fill-rule="evenodd" clip-rule="evenodd" d="M22.2947 14.7688C21.4998 15.2328 20.8839 16.1833 20.4469 17.6205C20.0099 19.0576 19.6101 21.0667 19.2475 23.6477C19.7311 22.0061 20.0519 20.8171 20.2099 20.0807C20.4469 18.976 20.5278 17.4139 21.1571 16.3534C21.5765 15.6464 21.9558 15.1182 22.2947 14.7688Z" fill="#330A4C" fill-opacity="0.316321"/>
<path fill-rule="evenodd" clip-rule="evenodd" d="M18.6141 30.1671C19.9223 30.354 20.6063 30.5202 20.6662 30.6656C20.7561 30.8837 20.5006 31.0832 19.7745 30.9491C19.2904 30.8598 18.9036 30.5991 18.6141 30.1671Z" fill="white"/>
<path fill-rule="evenodd" clip-rule="evenodd" d="M19.2713 12.2439C18.5518 13.1035 17.9284 14.0147 17.4009 14.9777C16.8735 15.9407 16.4967 16.6591 16.2704 17.1329C16.2002 17.4864 16.166 18.0078 16.1677 18.6974C16.1693 19.3869 16.229 20.1536 16.3466 20.9975C16.4496 19.345 16.7648 17.7411 17.2923 16.1856C17.8197 14.6301 18.4794 13.3162 19.2713 12.2439Z" fill="#EDEDED" fill-opacity="0.603261"/>
</g>
<defs>
<linearGradient id="paint0_linear_3056_2249" x1="21.3734" y1="12.1006" x2="20.6449" y2="31.4842" gradientUnits="userSpaceOnUse">
<stop stop-color="#D9D8DC"/>
<stop offset="1" stop-color="white" stop-opacity="0.385275"/>
</linearGradient>
<linearGradient id="paint1_linear_3056_2249" x1="21.7027" y1="12.0957" x2="14.0893" y2="28.7822" gradientUnits="userSpaceOnUse">
<stop stop-color="#8D67AF" stop-opacity="0.671932"/>
<stop offset="1" stop-color="#9F8DAF"/>
</linearGradient>
<linearGradient id="paint2_linear_3056_2249" x1="22.5526" y1="17.5021" x2="22.5526" y2="30.9207" gradientUnits="userSpaceOnUse">
<stop stop-color="#26053D" stop-opacity="0.761634"/>
<stop offset="1" stop-color="#B7B4B4" stop-opacity="0.277683"/>
</linearGradient>
<linearGradient id="paint3_linear_3056_2249" x1="15.6676" y1="18.4095" x2="19.0837" y2="27.4585" gradientUnits="userSpaceOnUse">
<stop stop-color="#91739F" stop-opacity="0.45955"/>
<stop offset="1" stop-color="#32054F" stop-opacity="0.539912"/>
</linearGradient>
<linearGradient id="paint4_linear_3056_2249" x1="24.7985" y1="29.5369" x2="15.4046" y2="21.7532" gradientUnits="userSpaceOnUse">
<stop stop-color="#463D49" stop-opacity="0.331182"/>
<stop offset="1" stop-color="#340A50" stop-opacity="0.821388"/>
</linearGradient>
<linearGradient id="paint5_linear_3056_2249" x1="22.8676" y1="17.6286" x2="16.2422" y2="27.7076" gradientUnits="userSpaceOnUse">
<stop stop-color="#715383" stop-opacity="0.145239"/>
<stop offset="1" stop-color="#F4F4F4" stop-opacity="0.233639"/>
</linearGradient>
<linearGradient id="paint6_linear_3056_2249" x1="23.5013" y1="20.7028" x2="18.8093" y2="20.4164" gradientUnits="userSpaceOnUse">
<stop stop-color="#A5A1A8" stop-opacity="0.356091"/>
<stop offset="1" stop-color="#370C50" stop-opacity="0.581975"/>
</linearGradient>
<clipPath id="clip0_3056_2249">
<rect width="21" height="21" fill="white" transform="translate(10.5 10.5)"/>
</clipPath>
</defs>
</svg>
