<svg width="42" height="43" viewBox="0 0 42 43" fill="none" xmlns="http://www.w3.org/2000/svg">
<path d="M16.9353 2.83526C19.4432 1.35586 22.5568 1.35587 25.0647 2.83526L34.4935 8.39731C36.9321 9.83589 38.4288 12.4564 38.4288 15.2878V26.7122C38.4288 29.5436 36.9321 32.1641 34.4934 33.6027L25.0647 39.1647C22.5568 40.6441 19.4432 40.6441 16.9353 39.1647L7.50655 33.6027C5.06786 32.1641 3.57124 29.5436 3.57124 26.7122V15.2878C3.57124 12.4564 5.06786 9.83589 7.50655 8.3973L16.9353 2.83526Z" fill="white"/>
<path fill-rule="evenodd" clip-rule="evenodd" d="M36.8709 10.0307L22.584 1.7821C21.6038 1.2162 20.3962 1.2162 19.416 1.78209L5.12913 10.0307C4.14898 10.5965 3.54518 11.6424 3.54518 12.7741V29.2713C3.54518 30.403 4.14898 31.4489 5.12913 32.0147L19.416 40.2633C20.3962 40.8292 21.6038 40.8292 22.584 40.2633L36.8709 32.0147C37.851 31.4489 38.4548 30.403 38.4548 29.2713V12.7741C38.4548 11.6424 37.851 10.5965 36.8709 10.0307ZM23.2628 0.606314C21.8626 -0.202104 20.1374 -0.202105 18.7372 0.606313L4.45029 8.85487C3.05007 9.66329 2.1875 11.1573 2.1875 12.7741V29.2713C2.1875 30.8881 3.05007 32.3821 4.45029 33.1905L18.7372 41.4391C20.1374 42.2475 21.8626 42.2475 23.2628 41.4391L37.5497 33.1905C38.9499 32.3821 39.8125 30.8881 39.8125 29.2713V12.7741C39.8125 11.1573 38.9499 9.66329 37.5497 8.85487L23.2628 0.606314Z" fill="#EB5757"/>
<g clip-path="url(#clip0_3056_2175)">
<path fill-rule="evenodd" clip-rule="evenodd" d="M14.7799 31.5L30.3044 30.4435L31.5 14.7462L26.7696 24.3608L14.7799 31.5Z" fill="url(#paint0_linear_3056_2175)"/>
<path fill-rule="evenodd" clip-rule="evenodd" d="M25.361 26.0103L30.3299 30.4329L28.9955 21.1977L25.361 26.0103Z" fill="url(#paint1_linear_3056_2175)"/>
<path fill-rule="evenodd" clip-rule="evenodd" d="M14.8318 31.4798L30.3479 30.4329L20.5723 29.6634L14.8318 31.4798Z" fill="url(#paint2_linear_3056_2175)"/>
<path fill-rule="evenodd" clip-rule="evenodd" d="M11.9139 24.6116L14.8457 31.4819L17.2877 23.4595L11.9139 24.6116Z" fill="url(#paint3_linear_3056_2175)"/>
<path fill-rule="evenodd" clip-rule="evenodd" d="M16.6825 23.2554L25.36 26.0369L23.1129 17.2109L16.6825 23.2554Z" fill="url(#paint4_linear_3056_2175)"/>
<path fill-rule="evenodd" clip-rule="evenodd" d="M23.2189 17.8444L30.9902 17.3352L24.9116 12.3568L23.2189 17.8444Z" fill="url(#paint5_linear_3056_2175)"/>
<path fill-rule="evenodd" clip-rule="evenodd" d="M22.317 10.5551L28.1475 10.5817L24.5724 12.5629L22.317 10.5551Z" fill="url(#paint6_linear_3056_2175)"/>
<path fill-rule="evenodd" clip-rule="evenodd" d="M10.7862 21.3008L10.5 27.3028L11.9977 24.5638L10.7862 21.3008Z" fill="url(#paint7_linear_3056_2175)"/>
<path fill-rule="evenodd" clip-rule="evenodd" d="M10.7056 21.1977L11.9245 24.6647L17.2241 23.4733L23.2709 17.8401L24.9773 12.4046L22.2873 10.5L17.7191 12.2144C16.2797 13.5568 13.4868 16.2129 13.3861 16.2628C13.2854 16.3128 11.5419 19.6204 10.7056 21.1977Z" fill="white"/>
<path fill-rule="evenodd" clip-rule="evenodd" d="M14.9856 14.9693C18.1049 11.8679 22.1262 10.0355 23.6694 11.5969C25.2126 13.1582 23.5761 16.9526 20.4568 20.053C17.3375 23.1534 13.3618 25.0867 11.8238 23.5254C10.2859 21.964 11.8662 18.0697 14.9856 14.9693Z" fill="url(#paint8_linear_3056_2175)"/>
<path fill-rule="evenodd" clip-rule="evenodd" d="M14.8456 31.4787L17.2686 23.4307L25.3154 26.023C22.406 28.7588 19.1701 31.0716 14.8456 31.4787Z" fill="url(#paint9_linear_3056_2175)"/>
<path fill-rule="evenodd" clip-rule="evenodd" d="M23.2783 17.822L25.344 26.0273C27.7765 23.4669 29.9557 20.7098 31.0241 17.3023L23.2783 17.822Z" fill="url(#paint10_linear_3056_2175)"/>
<path fill-rule="evenodd" clip-rule="evenodd" d="M31.0029 17.3435C31.8297 14.8416 32.0162 11.2523 28.1221 10.5859L24.9233 12.3577L31.0029 17.3435Z" fill="url(#paint11_linear_3056_2175)"/>
<path fill-rule="evenodd" clip-rule="evenodd" d="M10.5 27.2667C10.6145 31.3959 13.5854 31.4575 14.8509 31.4937L11.9277 24.6478L10.5 27.2667Z" fill="#AA3E35"/>
<path fill-rule="evenodd" clip-rule="evenodd" d="M23.2899 17.8337C25.1575 18.9848 28.9212 21.2965 28.9975 21.3412C29.1162 21.4081 30.6203 18.7978 30.9615 17.3225L23.2899 17.8337Z" fill="url(#paint12_radial_3056_2175)"/>
<path fill-rule="evenodd" clip-rule="evenodd" d="M17.2654 23.4307L20.5045 29.7016C22.4198 28.66 23.9195 27.3909 25.2932 26.0315L17.2654 23.4307Z" fill="url(#paint13_radial_3056_2175)"/>
<path fill-rule="evenodd" clip-rule="evenodd" d="M11.915 24.6562L11.4539 30.1363C12.3199 31.3225 13.5112 31.4256 14.7608 31.3331C13.8589 29.0767 12.0528 24.5648 11.915 24.6562Z" fill="url(#paint14_linear_3056_2175)"/>
<path fill-rule="evenodd" clip-rule="evenodd" d="M24.9042 12.3715L31.3389 13.277C30.9955 11.8177 29.9409 10.876 28.1433 10.5816L24.9042 12.3715Z" fill="url(#paint15_linear_3056_2175)"/>
</g>
<defs>
<linearGradient id="paint0_linear_3056_2175" x1="28.9499" y1="33.4089" x2="24.5008" y2="25.5756" gradientUnits="userSpaceOnUse">
<stop stop-color="#F68F71"/>
<stop offset="0.41" stop-color="#DC5242"/>
<stop offset="0.99" stop-color="#A72C32"/>
<stop offset="1" stop-color="#A72C32"/>
</linearGradient>
<linearGradient id="paint1_linear_3056_2175" x1="31.1566" y1="26.8213" x2="25.4381" y2="22.9938" gradientUnits="userSpaceOnUse">
<stop stop-color="#9B3F34"/>
<stop offset="0.99" stop-color="#A23E36"/>
<stop offset="1" stop-color="#A23E36"/>
</linearGradient>
<linearGradient id="paint2_linear_3056_2175" x1="2370.01" y1="425.245" x2="2334.22" y2="220.062" gradientUnits="userSpaceOnUse">
<stop stop-color="#9B3F34"/>
<stop offset="0.99" stop-color="#A23E36"/>
<stop offset="1" stop-color="#A23E36"/>
</linearGradient>
<linearGradient id="paint3_linear_3056_2175" x1="14.6019" y1="24.0398" x2="15.4917" y2="29.8072" gradientUnits="userSpaceOnUse">
<stop stop-color="white"/>
<stop offset="0.23" stop-color="#E28B6F"/>
<stop offset="0.46" stop-color="#DA6144"/>
<stop offset="0.99" stop-color="#A60003"/>
<stop offset="1" stop-color="#A60003"/>
</linearGradient>
<linearGradient id="paint4_linear_3056_2175" x1="20.6889" y1="18.6532" x2="21.0172" y2="24.5403" gradientUnits="userSpaceOnUse">
<stop stop-color="white"/>
<stop offset="0.23" stop-color="#E08A6D"/>
<stop offset="0.56" stop-color="#C14435"/>
<stop offset="0.99" stop-color="#B13430"/>
<stop offset="1" stop-color="#B13430"/>
</linearGradient>
<linearGradient id="paint5_linear_3056_2175" x1="26.0913" y1="13.2124" x2="27.0737" y2="17.4308" gradientUnits="userSpaceOnUse">
<stop stop-color="white"/>
<stop offset="0.18" stop-color="#DF8063"/>
<stop offset="0.4" stop-color="#C94D37"/>
<stop offset="0.99" stop-color="#B13430"/>
<stop offset="1" stop-color="#B13430"/>
</linearGradient>
<linearGradient id="paint6_linear_3056_2175" x1="23.1108" y1="11.7264" x2="27.3223" y2="9.62598" gradientUnits="userSpaceOnUse">
<stop stop-color="white"/>
<stop offset="0.54" stop-color="#C94838"/>
<stop offset="0.99" stop-color="#C12D2F"/>
<stop offset="1" stop-color="#C12D2F"/>
</linearGradient>
<linearGradient id="paint7_linear_3056_2175" x1="10.9134" y1="22.5698" x2="11.2619" y2="26.0463" gradientUnits="userSpaceOnUse">
<stop stop-color="white"/>
<stop offset="0.31" stop-color="#DA6548"/>
<stop offset="0.99" stop-color="#C14433"/>
<stop offset="1" stop-color="#C14433"/>
</linearGradient>
<linearGradient id="paint8_linear_3056_2175" x1="8.53282" y1="26.986" x2="24.8564" y2="10.2467" gradientUnits="userSpaceOnUse">
<stop stop-color="#BD0012"/>
<stop offset="0.07" stop-color="white"/>
<stop offset="0.17" stop-color="white"/>
<stop offset="0.27" stop-color="#C95841"/>
<stop offset="0.33" stop-color="#983734"/>
<stop offset="0.46" stop-color="#AE4231"/>
<stop offset="0.72" stop-color="#B93E2F"/>
<stop offset="0.99" stop-color="#DE4E2B"/>
<stop offset="1" stop-color="#DE4E2B"/>
</linearGradient>
<linearGradient id="paint9_linear_3056_2175" x1="21.0016" y1="28.6781" x2="16.0969" y2="27.4717" gradientUnits="userSpaceOnUse">
<stop stop-color="#9F3633"/>
<stop offset="0.54" stop-color="#A73532"/>
<stop offset="0.99" stop-color="#B13439"/>
<stop offset="1" stop-color="#B13439"/>
</linearGradient>
<linearGradient id="paint10_linear_3056_2175" x1="29.4226" y1="22.7771" x2="25.0555" y2="18.8747" gradientUnits="userSpaceOnUse">
<stop stop-color="#923C36"/>
<stop offset="0.99" stop-color="#AA3531"/>
<stop offset="1" stop-color="#AA3531"/>
</linearGradient>
<linearGradient id="paint11_linear_3056_2175" x1="31.022" y1="15.5951" x2="28.8459" y2="13.2746" gradientUnits="userSpaceOnUse">
<stop stop-color="#8D3E36"/>
<stop offset="0.99" stop-color="#AA3E37"/>
<stop offset="1" stop-color="#AA3E37"/>
</linearGradient>
<radialGradient id="paint12_radial_3056_2175" cx="0" cy="0" r="1" gradientUnits="userSpaceOnUse" gradientTransform="translate(25.7447 18.9381) scale(5.33771 5.35256)">
<stop stop-color="#B13430"/>
<stop offset="0.99" stop-color="#923834"/>
<stop offset="1" stop-color="#923834"/>
</radialGradient>
<radialGradient id="paint13_radial_3056_2175" cx="0" cy="0" r="1" gradientUnits="userSpaceOnUse" gradientTransform="translate(18.3529 25.9912) scale(7.0961 7.11585)">
<stop stop-color="#AE3531"/>
<stop offset="0.99" stop-color="#953A36"/>
<stop offset="1" stop-color="#953A36"/>
</radialGradient>
<linearGradient id="paint14_linear_3056_2175" x1="13.3268" y1="31.4745" x2="11.5498" y2="25.4614" gradientUnits="userSpaceOnUse">
<stop stop-color="#994939"/>
<stop offset="0.43" stop-color="#AA3A36"/>
<stop offset="0.99" stop-color="#B83936"/>
<stop offset="1" stop-color="#B83936"/>
</linearGradient>
<linearGradient id="paint15_linear_3056_2175" x1="26.8904" y1="11.5414" x2="30.8581" y2="13.288" gradientUnits="userSpaceOnUse">
<stop stop-color="#B9392F"/>
<stop offset="0.44" stop-color="#A23A36"/>
<stop offset="0.99" stop-color="#8D463A"/>
<stop offset="1" stop-color="#8D463A"/>
</linearGradient>
<clipPath id="clip0_3056_2175">
<rect width="21" height="21" fill="white" transform="translate(10.5 10.5)"/>
</clipPath>
</defs>
</svg>
