<svg width="42" height="42" viewBox="0 0 42 42" fill="none" xmlns="http://www.w3.org/2000/svg">
<path d="M19.25 1.01035C20.3329 0.385139 21.6671 0.385139 22.75 1.01035L37.4365 9.48963C38.5194 10.1148 39.1865 11.2703 39.1865 12.5207V29.4793C39.1865 30.7297 38.5194 31.8851 37.4365 32.5104L22.75 40.9896C21.6671 41.6148 20.3329 41.6148 19.25 40.9896L4.56348 32.5104C3.48057 31.8851 2.81348 30.7297 2.81348 29.4793V12.5207C2.81348 11.2703 3.48057 10.1148 4.56348 9.48963L19.25 1.01035Z" fill="white"/>
<path fill-rule="evenodd" clip-rule="evenodd" d="M36.8334 10.0198L22.5619 1.78017C21.5828 1.21489 20.3765 1.21489 19.3974 1.78017L5.12595 10.0198C4.14686 10.5851 3.54371 11.6298 3.54371 12.7603V29.2396C3.54371 30.3702 4.14686 31.4149 5.12595 31.9802L19.3974 40.2198C20.3765 40.7851 21.5828 40.7851 22.5619 40.2198L36.8334 31.9802C37.8125 31.4149 38.4157 30.3702 38.4157 29.2397V12.7603C38.4157 11.6298 37.8125 10.5851 36.8334 10.0198ZM23.24 0.605659C21.8413 -0.201886 20.1181 -0.201887 18.7193 0.605659L4.44785 8.84531C3.04914 9.65285 2.1875 11.1453 2.1875 12.7603V29.2396C2.1875 30.8547 3.04914 32.3471 4.44785 33.1547L18.7193 41.3943C20.118 42.2019 21.8413 42.2019 23.24 41.3943L37.5115 33.1547C38.9102 32.3471 39.7719 30.8547 39.7719 29.2397V12.7603C39.7719 11.1453 38.9102 9.65285 37.5115 8.84531L23.24 0.605659Z" fill="#821394"/>
<path fill-rule="evenodd" clip-rule="evenodd" d="M19.1897 29.8481C14.3982 29.8481 10.5 25.9499 10.5 21.1584C10.5 16.3669 14.3982 12.4688 19.1897 12.4688C22.2815 12.4688 25.165 14.1326 26.7148 16.8109L22.9542 18.987C22.1785 17.6464 20.7359 16.8136 19.1897 16.8136C16.7939 16.8136 14.8448 18.7626 14.8448 21.1584C14.8448 23.5541 16.7939 25.5032 19.1897 25.5032C20.7361 25.5032 22.1786 24.6704 22.9544 23.3295L26.7151 25.5056C25.1652 28.1842 22.2816 29.8481 19.1897 29.8481ZM27.8793 20.6756H26.9137V19.7101H25.9483V20.6756H24.9828V21.6411H25.9483V22.6067H26.9137V21.6411H27.8793V20.6756ZM30.5344 20.6756H31.5V21.6411H30.5344V22.6067H29.569V21.6411H28.6034V20.6756H29.569V19.7101H30.5344V20.6756Z" fill="#821394"/>
</svg>
