<svg width="42" height="43" viewBox="0 0 42 43" fill="none" xmlns="http://www.w3.org/2000/svg">
<path d="M16.9353 2.83526C19.4432 1.35586 22.5568 1.35587 25.0647 2.83526L34.4935 8.39731C36.9321 9.83589 38.4288 12.4564 38.4288 15.2878V26.7122C38.4288 29.5436 36.9321 32.1641 34.4934 33.6027L25.0647 39.1647C22.5568 40.6441 19.4432 40.6441 16.9353 39.1647L7.50655 33.6027C5.06786 32.1641 3.57124 29.5436 3.57124 26.7122V15.2878C3.57124 12.4564 5.06786 9.83589 7.50655 8.3973L16.9353 2.83526Z" fill="white"/>
<path fill-rule="evenodd" clip-rule="evenodd" d="M36.8709 10.0307L22.584 1.7821C21.6038 1.2162 20.3962 1.2162 19.416 1.78209L5.12913 10.0307C4.14898 10.5965 3.54518 11.6424 3.54518 12.7741V29.2713C3.54518 30.403 4.14898 31.4489 5.12913 32.0147L19.416 40.2633C20.3962 40.8292 21.6038 40.8292 22.584 40.2633L36.8709 32.0147C37.851 31.4489 38.4548 30.403 38.4548 29.2713V12.7741C38.4548 11.6424 37.851 10.5965 36.8709 10.0307ZM23.2628 0.606314C21.8626 -0.202104 20.1374 -0.202105 18.7372 0.606313L4.45029 8.85487C3.05007 9.66329 2.1875 11.1573 2.1875 12.7741V29.2713C2.1875 30.8881 3.05007 32.3821 4.45029 33.1905L18.7372 41.4391C20.1374 42.2475 21.8626 42.2475 23.2628 41.4391L37.5497 33.1905C38.9499 32.3821 39.8125 30.8881 39.8125 29.2713V12.7741C39.8125 11.1573 38.9499 9.66329 37.5497 8.85487L23.2628 0.606314Z" fill="#F0DB4F"/>
<rect x="10.5" y="10.5" width="21" height="21" fill="#F8DC3D"/>
<path d="M19.1514 29.3271C20.8602 29.3271 22.0316 28.4176 22.0316 26.4193V19.8319H20.1023V26.3917C20.1023 27.3564 19.7026 27.6045 19.0687 27.6045C18.4072 27.6045 18.1315 27.1497 17.8284 26.6122L16.2573 27.5631C16.7121 28.5278 17.6079 29.3271 19.1514 29.3271Z" fill="black"/>
<path d="M26.5945 29.3271C28.4274 29.3271 29.7918 28.3762 29.7918 26.6398C29.7918 25.0274 28.8684 24.3108 27.2285 23.6079L26.7461 23.4012C25.9192 23.0429 25.5609 22.8086 25.5609 22.2298C25.5609 21.7612 25.9192 21.4029 26.4843 21.4029C27.0355 21.4029 27.3938 21.6372 27.7246 22.2298L29.2267 21.2651C28.5928 20.1488 27.7108 19.7216 26.4843 19.7216C24.7616 19.7216 23.6591 20.8241 23.6591 22.2711C23.6591 23.8422 24.5825 24.5864 25.9744 25.179L26.4567 25.3857C27.3387 25.7716 27.8624 26.0059 27.8624 26.6674C27.8624 27.2186 27.3525 27.6183 26.5532 27.6183C25.6023 27.6183 25.0648 27.1221 24.6514 26.4469L23.0803 27.3564C23.6453 28.4727 24.803 29.3271 26.5945 29.3271Z" fill="black"/>
</svg>
