<svg width="42" height="42" viewBox="0 0 42 42" fill="none" xmlns="http://www.w3.org/2000/svg">
<path d="M19.25 1.01035C20.3329 0.385139 21.6671 0.385139 22.75 1.01035L37.4365 9.48963C38.5194 10.1148 39.1865 11.2703 39.1865 12.5207V29.4793C39.1865 30.7297 38.5194 31.8851 37.4365 32.5104L22.75 40.9896C21.6671 41.6148 20.3329 41.6148 19.25 40.9896L4.56348 32.5104C3.48057 31.8851 2.81348 30.7297 2.81348 29.4793V12.5207C2.81348 11.2703 3.48057 10.1148 4.56348 9.48963L19.25 1.01035Z" fill="white"/>
<path fill-rule="evenodd" clip-rule="evenodd" d="M36.8334 10.0198L22.5619 1.78017C21.5828 1.21489 20.3765 1.21489 19.3974 1.78017L5.12595 10.0198C4.14686 10.5851 3.54371 11.6298 3.54371 12.7603V29.2396C3.54371 30.3702 4.14686 31.4149 5.12595 31.9802L19.3974 40.2198C20.3765 40.7851 21.5828 40.7851 22.5619 40.2198L36.8334 31.9802C37.8125 31.4149 38.4157 30.3702 38.4157 29.2397V12.7603C38.4157 11.6298 37.8125 10.5851 36.8334 10.0198ZM23.24 0.605659C21.8413 -0.201886 20.1181 -0.201887 18.7193 0.605659L4.44785 8.84531C3.04914 9.65285 2.1875 11.1453 2.1875 12.7603V29.2396C2.1875 30.8547 3.04914 32.3471 4.44785 33.1547L18.7193 41.3943C20.118 42.2019 21.8413 42.2019 23.24 41.3943L37.5115 33.1547C38.9102 32.3471 39.7719 30.8547 39.7719 29.2397V12.7603C39.7719 11.1453 38.9102 9.65285 37.5115 8.84531L23.24 0.605659Z" fill="#341394"/>
<path d="M10.5002 20.9906C10.4376 10.7301 24.3838 6.19953 30.3979 15.7333L25.7831 18.3648C22.9972 13.8242 16.0801 15.4478 15.8318 20.9905C15.9064 26.0989 22.705 28.4718 25.7834 23.616L30.3982 26.2474C25.098 35.3143 10.7675 32.0522 10.5002 20.9906Z" fill="#341394"/>
<path d="M28.0899 18.0112H28.9688L28.3683 23.7273H27.4728L28.0899 18.0112Z" fill="#341394"/>
<path d="M29.9725 18.0112H30.8514L30.2509 23.7273H29.3555L29.9725 18.0112Z" fill="#341394"/>
<path d="M31.5 19.3687H27.1056V20.2051H31.5V19.3687Z" fill="#341394"/>
<path d="M31.2539 21.4062H26.8595V22.2427H31.2539V21.4062Z" fill="#341394"/>
</svg>
